<?xml version="1.0" standalone="no"?>
<!DOCTYPE svg PUBLIC "-//W3C//DTD SVG 20010904//EN"
 "http://www.w3.org/TR/2001/REC-SVG-20010904/DTD/svg10.dtd">
<svg version="1.0" xmlns="http://www.w3.org/2000/svg"
 width="400.000000pt" height="400.000000pt" viewBox="0 0 400.000000 400.000000"
 preserveAspectRatio="xMidYMid meet">

<g transform="translate(0.000000,400.000000) scale(0.100000,-0.100000)"
fill="#000000" stroke="none">
<path d="M1850 3744 c-14 -2 -59 -9 -100 -15 -642 -92 -1193 -556 -1400 -1178
-56 -167 -79 -296 -86 -473 -13 -317 36 -560 167 -837 226 -476 648 -821 1164
-949 154 -39 226 -46 430 -45 176 0 215 4 326 27 142 30 253 65 379 120 465
205 841 643 974 1137 47 176 60 272 60 464 0 191 -12 279 -61 465 -129 489
-505 929 -970 1134 -237 104 -422 146 -678 151 -99 2 -191 2 -205 -1z m-1082
-1114 c-2 -66 0 -120 5 -120 4 0 61 54 126 120 l119 120 73 0 74 0 -197 -197
-197 -198 -2 -123 c-1 -68 1 -125 3 -127 2 -2 150 142 328 320 l325 325 55 0
55 0 165 -165 c91 -91 169 -165 175 -165 5 0 84 74 175 165 l165 165 72 0 73
0 0 -312 0 -313 168 168 167 167 52 0 53 0 2 -190 3 -190 335 335 335 335 53
0 52 0 0 -755 0 -755 -50 0 -50 0 0 682 0 683 -340 -340 -340 -340 0 -347 0
-348 -50 0 -50 0 0 547 0 548 -173 -173 -172 -172 -48 0 -47 0 0 330 c0 182
-3 330 -7 330 -4 0 -81 -73 -170 -162 l-163 -163 0 -543 0 -543 -47 3 -48 3
-3 545 -2 545 -142 142 c-78 78 -145 140 -150 137 -4 -3 -8 -311 -8 -685 l0
-679 -50 0 -50 0 0 682 0 683 -325 -325 -325 -325 0 -163 0 -163 196 -195 196
-194 -73 0 -74 0 -122 122 -123 123 0 -123 0 -122 -50 0 c-41 0 -50 3 -50 18
-1 9 -1 86 0 171 l1 154 -201 201 c-110 111 -200 205 -200 210 0 4 90 97 200
206 l200 198 0 176 0 176 51 0 50 0 -3 -120z"/>
<path d="M530 2115 l-124 -125 122 -120 c67 -66 127 -120 133 -120 11 0 12
477 0 484 -4 3 -63 -51 -131 -119z"/>
</g>
</svg>
